<svg width="764" height="721" viewBox="0 0 764 721" fill="none" xmlns="http://www.w3.org/2000/svg">
<ellipse cx="679" cy="192.5" rx="40" ry="192.5" fill="#C4C4C4"/>
<ellipse cx="699" cy="192.5" rx="40" ry="192.5" fill="#D8D8D8"/>
<ellipse cx="372" cy="192.5" rx="40" ry="192.5" fill="#D3A953"/>
<ellipse cx="392" cy="192.5" rx="40" ry="192.5" fill="#FFC857"/>
<ellipse cx="65" cy="192.5" rx="40" ry="192.5" fill="#4762C0"/>
<ellipse cx="85" cy="192.5" rx="40" ry="192.5" fill="#7E7CEA"/>
<path d="M21.668 653.32V656.36H78.82C80.8466 656.36 81.86 658.133 81.86 661.68C81.86 665.227 80.8466 667 78.82 667H12.548C10.5213 667 9.50797 665.227 9.50797 661.68V653.016C9.50797 649.368 10.0146 646.581 11.028 644.656C12.1426 642.629 12.852 641.363 13.156 640.856C13.5613 640.248 14.3213 639.285 15.436 637.968C16.652 636.549 17.4626 635.587 17.868 635.08C19.8946 632.547 21.972 630.216 24.1 628.088L62.86 584.464C65.3933 581.525 67.116 579.195 68.028 577.472C69.0413 575.749 69.548 573.672 69.548 571.24V565.16H18.476C16.4493 565.16 15.436 563.387 15.436 559.84C15.436 556.293 16.4493 554.52 18.476 554.52H78.668C80.6946 554.52 81.708 556.293 81.708 559.84V571.544C81.708 575.192 81.1506 578.029 80.036 580.056C79.0226 581.981 78.3133 583.248 77.908 583.856C77.604 584.363 76.844 585.325 75.628 586.744C74.5133 588.061 73.7533 588.973 73.348 589.48C71.3213 592.013 69.244 594.344 67.116 596.472L28.356 640.096C25.8226 643.035 24.0493 645.365 23.036 647.088C22.124 648.811 21.668 650.888 21.668 653.32ZM197.642 576.256V664.264C197.642 666.595 195.616 667.76 191.562 667.76C187.509 667.76 185.482 666.595 185.482 664.264V623.072H139.426V664.264C139.426 666.595 137.4 667.76 133.346 667.76C129.293 667.76 127.266 666.595 127.266 664.264V576.256C127.266 570.581 128.938 565.92 132.282 562.272C135.626 558.523 139.882 555.939 145.05 554.52C150.218 553 156.298 552.24 163.29 552.24C186.192 552.24 197.642 560.245 197.642 576.256ZM139.426 574.736V612.432H185.482V574.736C185.482 566.832 177.781 562.88 162.378 562.88C147.077 562.88 139.426 566.832 139.426 574.736ZM270.544 610.76H283.768C297.55 610.76 304.44 606.808 304.44 598.904V574.736C304.44 566.832 297.499 562.88 283.616 562.88C269.835 562.88 262.944 566.832 262.944 574.736V664.264C262.944 666.595 260.918 667.76 256.864 667.76C252.811 667.76 250.784 666.595 250.784 664.264V576.256C250.784 567.845 253.774 561.765 259.752 558.016C265.731 554.165 273.686 552.24 283.616 552.24C293.547 552.24 301.502 554.165 307.48 558.016C313.56 561.765 316.6 567.845 316.6 576.256V597.384C316.6 606.808 312.192 612.685 303.376 615.016C305.707 617.144 307.531 620.589 308.848 625.352C316.043 651.192 319.64 664.416 319.64 665.024C319.64 666.848 317.867 667.76 314.32 667.76C310.774 667.76 308.646 666.595 307.936 664.264L298.36 629.608C297.448 626.061 296.182 623.832 294.56 622.92C292.939 621.907 289.392 621.4 283.92 621.4H270.544C268.518 621.4 267.504 619.627 267.504 616.08C267.504 612.533 268.518 610.76 270.544 610.76ZM388.125 610.76H401.349C415.13 610.76 422.021 606.808 422.021 598.904V574.736C422.021 566.832 415.079 562.88 401.197 562.88C387.415 562.88 380.525 566.832 380.525 574.736V664.264C380.525 666.595 378.498 667.76 374.445 667.76C370.391 667.76 368.365 666.595 368.365 664.264V576.256C368.365 567.845 371.354 561.765 377.333 558.016C383.311 554.165 391.266 552.24 401.197 552.24C411.127 552.24 419.082 554.165 425.061 558.016C431.141 561.765 434.181 567.845 434.181 576.256V597.384C434.181 606.808 429.773 612.685 420.957 615.016C423.287 617.144 425.111 620.589 426.429 625.352C433.623 651.192 437.221 664.416 437.221 665.024C437.221 666.848 435.447 667.76 431.901 667.76C428.354 667.76 426.226 666.595 425.517 664.264L415.941 629.608C415.029 626.061 413.762 623.832 412.141 622.92C410.519 621.907 406.973 621.4 401.501 621.4H388.125C386.098 621.4 385.085 619.627 385.085 616.08C385.085 612.533 386.098 610.76 388.125 610.76ZM505.705 610.76H518.929C532.71 610.76 539.601 606.808 539.601 598.904V574.736C539.601 566.832 532.66 562.88 518.777 562.88C504.996 562.88 498.105 566.832 498.105 574.736V664.264C498.105 666.595 496.078 667.76 492.025 667.76C487.972 667.76 485.945 666.595 485.945 664.264V576.256C485.945 567.845 488.934 561.765 494.913 558.016C500.892 554.165 508.846 552.24 518.777 552.24C528.708 552.24 536.662 554.165 542.641 558.016C548.721 561.765 551.761 567.845 551.761 576.256V597.384C551.761 606.808 547.353 612.685 538.537 615.016C540.868 617.144 542.692 620.589 544.009 625.352C551.204 651.192 554.801 664.416 554.801 665.024C554.801 666.848 553.028 667.76 549.481 667.76C545.934 667.76 543.806 666.595 543.097 664.264L533.521 629.608C532.609 626.061 531.342 623.832 529.721 622.92C528.1 621.907 524.553 621.4 519.081 621.4H505.705C503.678 621.4 502.665 619.627 502.665 616.08C502.665 612.533 503.678 610.76 505.705 610.76ZM617.205 557.256V664.264C617.205 666.595 615.179 667.76 611.125 667.76C607.072 667.76 605.045 666.595 605.045 664.264V557.256C605.045 554.925 607.072 553.76 611.125 553.76C615.179 553.76 617.205 554.925 617.205 557.256ZM685.653 565.16H684.133V664.264C684.133 666.595 682.106 667.76 678.053 667.76C673.999 667.76 671.973 666.595 671.973 664.264V565.92C671.973 561.461 672.479 558.472 673.493 556.952C674.607 555.331 677.141 554.52 681.093 554.52H684.437C691.53 554.52 696.293 555.331 698.725 556.952C701.157 558.573 703.183 562.627 704.805 569.112L724.565 648.912C725.477 652.56 726.338 654.84 727.149 655.752C727.959 656.664 729.986 657.12 733.229 657.12H734.749V558.016C734.749 555.685 736.775 554.52 740.829 554.52C744.882 554.52 746.909 555.685 746.909 558.016V656.36C746.909 660.819 746.351 663.859 745.237 665.48C744.223 667 741.741 667.76 737.789 667.76H734.445C727.351 667.76 722.589 666.949 720.157 665.328C717.725 663.707 715.698 659.653 714.077 653.168L694.317 573.368C693.405 569.72 692.543 567.44 691.733 566.528C690.922 565.616 688.895 565.16 685.653 565.16Z" fill="black"/>
</svg>
