<svg width="2048" height="2048" viewBox="0 0 2048 2048" fill="none" xmlns="http://www.w3.org/2000/svg">
<rect width="2048" height="2048" fill="white"/>
<ellipse cx="1321" cy="856.5" rx="40" ry="192.5" fill="#C4C4C4"/>
<ellipse cx="1341" cy="856.5" rx="40" ry="192.5" fill="#D8D8D8"/>
<ellipse cx="1014" cy="856.5" rx="40" ry="192.5" fill="#D3A953"/>
<ellipse cx="1034" cy="856.5" rx="40" ry="192.5" fill="#FFC857"/>
<ellipse cx="707" cy="856.5" rx="40" ry="192.5" fill="#4762C0"/>
<ellipse cx="727" cy="856.5" rx="40" ry="192.5" fill="#7E7CEA"/>
<path d="M663.668 1317.32V1320.36H720.82C722.847 1320.36 723.86 1322.13 723.86 1325.68C723.86 1329.23 722.847 1331 720.82 1331H654.548C652.521 1331 651.508 1329.23 651.508 1325.68V1317.02C651.508 1313.37 652.015 1310.58 653.028 1308.66C654.143 1306.63 654.852 1305.36 655.156 1304.86C655.561 1304.25 656.321 1303.29 657.436 1301.97C658.652 1300.55 659.463 1299.59 659.868 1299.08C661.895 1296.55 663.972 1294.22 666.1 1292.09L704.86 1248.46C707.393 1245.53 709.116 1243.19 710.028 1241.47C711.041 1239.75 711.548 1237.67 711.548 1235.24V1229.16H660.476C658.449 1229.16 657.436 1227.39 657.436 1223.84C657.436 1220.29 658.449 1218.52 660.476 1218.52H720.668C722.695 1218.52 723.708 1220.29 723.708 1223.84V1235.54C723.708 1239.19 723.151 1242.03 722.036 1244.06C721.023 1245.98 720.313 1247.25 719.908 1247.86C719.604 1248.36 718.844 1249.33 717.628 1250.74C716.513 1252.06 715.753 1252.97 715.348 1253.48C713.321 1256.01 711.244 1258.34 709.116 1260.47L670.356 1304.1C667.823 1307.03 666.049 1309.37 665.036 1311.09C664.124 1312.81 663.668 1314.89 663.668 1317.32ZM839.642 1240.26V1328.26C839.642 1330.59 837.616 1331.76 833.562 1331.76C829.509 1331.76 827.482 1330.59 827.482 1328.26V1287.07H781.426V1328.26C781.426 1330.59 779.4 1331.76 775.346 1331.76C771.293 1331.76 769.266 1330.59 769.266 1328.26V1240.26C769.266 1234.58 770.938 1229.92 774.282 1226.27C777.626 1222.52 781.882 1219.94 787.05 1218.52C792.218 1217 798.298 1216.24 805.29 1216.24C828.192 1216.24 839.642 1224.25 839.642 1240.26ZM781.426 1238.74V1276.43H827.482V1238.74C827.482 1230.83 819.781 1226.88 804.378 1226.88C789.077 1226.88 781.426 1230.83 781.426 1238.74ZM912.544 1274.76H925.768C939.55 1274.76 946.44 1270.81 946.44 1262.9V1238.74C946.44 1230.83 939.499 1226.88 925.616 1226.88C911.835 1226.88 904.944 1230.83 904.944 1238.74V1328.26C904.944 1330.59 902.918 1331.76 898.864 1331.76C894.811 1331.76 892.784 1330.59 892.784 1328.26V1240.26C892.784 1231.85 895.774 1225.77 901.752 1222.02C907.731 1218.17 915.686 1216.24 925.616 1216.24C935.547 1216.24 943.502 1218.17 949.48 1222.02C955.56 1225.77 958.6 1231.85 958.6 1240.26V1261.38C958.6 1270.81 954.192 1276.69 945.376 1279.02C947.707 1281.14 949.531 1284.59 950.848 1289.35C958.043 1315.19 961.64 1328.42 961.64 1329.02C961.64 1330.85 959.867 1331.76 956.32 1331.76C952.774 1331.76 950.646 1330.59 949.936 1328.26L940.36 1293.61C939.448 1290.06 938.182 1287.83 936.56 1286.92C934.939 1285.91 931.392 1285.4 925.92 1285.4H912.544C910.518 1285.4 909.504 1283.63 909.504 1280.08C909.504 1276.53 910.518 1274.76 912.544 1274.76ZM1030.12 1274.76H1043.35C1057.13 1274.76 1064.02 1270.81 1064.02 1262.9V1238.74C1064.02 1230.83 1057.08 1226.88 1043.2 1226.88C1029.42 1226.88 1022.52 1230.83 1022.52 1238.74V1328.26C1022.52 1330.59 1020.5 1331.76 1016.44 1331.76C1012.39 1331.76 1010.36 1330.59 1010.36 1328.26V1240.26C1010.36 1231.85 1013.35 1225.77 1019.33 1222.02C1025.31 1218.17 1033.27 1216.24 1043.2 1216.24C1053.13 1216.24 1061.08 1218.17 1067.06 1222.02C1073.14 1225.77 1076.18 1231.85 1076.18 1240.26V1261.38C1076.18 1270.81 1071.77 1276.69 1062.96 1279.02C1065.29 1281.14 1067.11 1284.59 1068.43 1289.35C1075.62 1315.19 1079.22 1328.42 1079.22 1329.02C1079.22 1330.85 1077.45 1331.76 1073.9 1331.76C1070.35 1331.76 1068.23 1330.59 1067.52 1328.26L1057.94 1293.61C1057.03 1290.06 1055.76 1287.83 1054.14 1286.92C1052.52 1285.91 1048.97 1285.4 1043.5 1285.4H1030.12C1028.1 1285.4 1027.08 1283.63 1027.08 1280.08C1027.08 1276.53 1028.1 1274.76 1030.12 1274.76ZM1147.7 1274.76H1160.93C1174.71 1274.76 1181.6 1270.81 1181.6 1262.9V1238.74C1181.6 1230.83 1174.66 1226.88 1160.78 1226.88C1147 1226.88 1140.1 1230.83 1140.1 1238.74V1328.26C1140.1 1330.59 1138.08 1331.76 1134.02 1331.76C1129.97 1331.76 1127.94 1330.59 1127.94 1328.26V1240.26C1127.94 1231.85 1130.93 1225.77 1136.91 1222.02C1142.89 1218.17 1150.85 1216.24 1160.78 1216.24C1170.71 1216.24 1178.66 1218.17 1184.64 1222.02C1190.72 1225.77 1193.76 1231.85 1193.76 1240.26V1261.38C1193.76 1270.81 1189.35 1276.69 1180.54 1279.02C1182.87 1281.14 1184.69 1284.59 1186.01 1289.35C1193.2 1315.19 1196.8 1328.42 1196.8 1329.02C1196.8 1330.85 1195.03 1331.76 1191.48 1331.76C1187.93 1331.76 1185.81 1330.59 1185.1 1328.26L1175.52 1293.61C1174.61 1290.06 1173.34 1287.83 1171.72 1286.92C1170.1 1285.91 1166.55 1285.4 1161.08 1285.4H1147.7C1145.68 1285.4 1144.66 1283.63 1144.66 1280.08C1144.66 1276.53 1145.68 1274.76 1147.7 1274.76ZM1259.21 1221.26V1328.26C1259.21 1330.59 1257.18 1331.76 1253.13 1331.76C1249.07 1331.76 1247.05 1330.59 1247.05 1328.26V1221.26C1247.05 1218.93 1249.07 1217.76 1253.13 1217.76C1257.18 1217.76 1259.21 1218.93 1259.21 1221.26ZM1327.65 1229.16H1326.13V1328.26C1326.13 1330.59 1324.11 1331.76 1320.05 1331.76C1316 1331.76 1313.97 1330.59 1313.97 1328.26V1229.92C1313.97 1225.46 1314.48 1222.47 1315.49 1220.95C1316.61 1219.33 1319.14 1218.52 1323.09 1218.52H1326.44C1333.53 1218.52 1338.29 1219.33 1340.72 1220.95C1343.16 1222.57 1345.18 1226.63 1346.8 1233.11L1366.56 1312.91C1367.48 1316.56 1368.34 1318.84 1369.15 1319.75C1369.96 1320.66 1371.99 1321.12 1375.23 1321.12H1376.75V1222.02C1376.75 1219.69 1378.78 1218.52 1382.83 1218.52C1386.88 1218.52 1388.91 1219.69 1388.91 1222.02V1320.36C1388.91 1324.82 1388.35 1327.86 1387.24 1329.48C1386.22 1331 1383.74 1331.76 1379.79 1331.76H1376.44C1369.35 1331.76 1364.59 1330.95 1362.16 1329.33C1359.72 1327.71 1357.7 1323.65 1356.08 1317.17L1336.32 1237.37C1335.4 1233.72 1334.54 1231.44 1333.73 1230.53C1332.92 1229.62 1330.9 1229.16 1327.65 1229.16Z" fill="black"/>
</svg>
